<svg xmlns="http://www.w3.org/2000/svg" viewBox="0 0 852 501.95"><defs><style>.cls-1{fill:#585858;}.cls-2{fill:#414042;}.cls-3{fill:#353535;}.cls-4{fill:#231f20;}.cls-5{fill:#ddd;}</style></defs><title>1</title><g id="Layer_10" data-name="Layer 10"><g id="Left_Angle_-_Vertical" data-name="Left Angle - Vertical"><path class="cls-1" d="M406.14,453.55c-1.45.83-2.63.16-2.63-1.5a5.76,5.76,0,0,1,2.63-4.52l56.2-32.23c1.45-.83,2.63-.16,2.63,1.51a5.76,5.76,0,0,1-2.63,4.52Z"/><path class="cls-1" d="M406.57,93.67c-1.45.83-2.62.16-2.62-1.51a5.76,5.76,0,0,1,2.62-4.52l55.77-32,.43-.24c1.45-.83,2.63-.16,2.63,1.5a5.76,5.76,0,0,1-2.63,4.52Z"/><path class="cls-1" d="M406.14,93.91c-1.45.83-2.63.16-2.63-1.51a5.76,5.76,0,0,1,2.63-4.52l.43-.24a5.76,5.76,0,0,0-2.62,4.52c0,1.66,1.18,2.34,2.62,1.51Z"/><polygon class="cls-2" points="356.97 457.99 356.97 143.77 511.66 55.04 511.66 369.26 356.97 457.99"/><path class="cls-3" d="M350.44,474.58V130.75c0-.32,0-.64,0-1,0-.1,0-.21,0-.31s0-.45,0-.68l0-.35q0-.33.06-.66l0-.34q0-.39.1-.79l0-.21q.07-.5.15-1l0-.27q.06-.37.14-.74l.07-.35q.07-.35.15-.7l.07-.29c.08-.33.16-.66.24-1s.16-.59.24-.88l.08-.27.19-.63.09-.29.22-.68.07-.21.31-.87.09-.25.21-.57.12-.31.21-.52.13-.32.22-.52.13-.3.25-.56.11-.25.17-.37.17-.36.18-.37.18-.36.19-.37.18-.36.19-.37.18-.34q.32-.59.66-1.18l.09-.17q.33-.57.67-1.13l.12-.19.67-1.06.12-.18q.36-.54.72-1.07l.06-.09.75-1,.07-.09.78-1,.13-.16.81-1,.14-.17.84-1,.14-.15.87-.94.1-.1q.46-.48.94-.95l.65-.62.2-.19.77-.7.17-.15.62-.52.28-.23.49-.39.53-.4.38-.29.56-.4.37-.26.63-.41.31-.2.95-.57L497.6,22.4c5.8-3.33,11-3.62,14.83-1.41L496,11.37c-3.78-2.21-9-1.92-14.83,1.41L354.87,85.22q-.52.3-1,.62l-.34.22-.68.45-.4.28-.61.44-.42.32-.4.31-.2.16-.25.21-.74.62-.17.15-.88.79-.21.2-.37.35-.38.37-.11.11-.83.85-.16.17-.71.77-.07.08-.6.7-.33.38-.77.94-.13.16h0q-.44.55-.86,1.12l-.2.28-.63.87,0,0-.28.41-.51.75-.32.5-.45.71,0,.06-.24.41-.47.78-.3.53-.42.75-.08.14-.46.88-.1.19c-.19.38-.38.75-.56,1.13l0,0-.32.68-.17.39-.12.28q-.25.56-.48,1.13l-.07.17q-.2.5-.39,1l-.11.3-.09.24-.14.42-.26.74-.19.61-.23.73-.18.61-.2.73-.15.61q-.09.36-.17.73l-.07.32-.09.45-.06.28q-.11.57-.2,1.14l0,.21q-.08.48-.14,1l0,.29c0,.38-.09.75-.12,1.13v.13q0,.5-.06,1,0,.15,0,.29c0,.37,0,.74,0,1.11V465c0,6.57,2.31,11.2,6,13.38L356.48,488C352.75,485.78,350.44,481.15,350.44,474.58Z"/><path class="cls-4" d="M371.34,486.51c-11.53,6.61-20.87,1.25-20.87-12V130.7c0-13.22,9.34-29.3,20.87-35.91l126.3-72.44c11.52-6.61,20.87-1.25,20.87,12V378.16c0,13.22-9.34,29.3-20.87,35.91Z"/><polyline class="cls-2" points="357 143.72 357 457.94 511.69 369.21 511.69 54.99 357 143.72"/><path class="cls-2" d="M406.17,87.84a5.76,5.76,0,0,0-2.63,4.52c0,1.66,1.18,2.34,2.63,1.51l.43-.24,56.2-32.23a5.76,5.76,0,0,0,2.63-4.52c0-1.66-1.18-2.34-2.63-1.51l-.43.24-56.2,32.23"/><path class="cls-2" d="M462.37,421.27a5.76,5.76,0,0,0,2.63-4.52c0-1.66-1.18-2.34-2.63-1.51l-56.2,32.23a5.76,5.76,0,0,0-2.63,4.52c0,1.66,1.18,2.34,2.63,1.51l56.2-32.23"/><path class="cls-2" d="M379.79,102.85c1.45-.83,2.63-.16,2.63,1.51a5.76,5.76,0,0,1-2.63,4.52c-1.45.83-2.62.16-2.62-1.51A5.76,5.76,0,0,1,379.79,102.85Z"/></g><path class="cls-5" d="M381.63,243V354.35c0,2.33,1.89,3.15,4.21,1.85l97.5-54.79c2.33-1.31,4.21-4.25,4.21-6.58V183.49c0-1.49-.79-2.43-2.07-2.46l-48.75-1.41a6.1,6.1,0,0,0-4.29,2.41l-48.75,56.2A7.86,7.86,0,0,0,381.63,243ZM443,200.09c0,4.65-3.77,10.55-8.43,13.16s-8.43,1-8.43-3.69,3.77-10.55,8.43-13.16S443,195.44,443,200.09ZM423.75,300.59c0-2.33,1.89-5.27,4.21-6.58l44.53-25c2.33-1.31,4.21-.48,4.21,1.85v12c0,2.33-1.89,5.27-4.21,6.58l-44.53,25c-2.33,1.31-4.21.48-4.21-1.85Zm-31.3,17.59c0-2.33,1.89-5.27,4.21-6.58l7.22-4.06c2.33-1.31,4.21-.48,4.21,1.85v22.87c0,2.33-1.89,5.27-4.21,6.58l-7.22,4.06c-2.33,1.31-4.21.48-4.21-1.85Zm-1.2-45.06c0-2.33,1.89-5.27,4.21-6.58l42.13-23.67c2.33-1.31,4.21-.48,4.21,1.85v13.24c0,2.33-1.89,5.27-4.21,6.58L395.47,288.2c-2.33,1.31-4.21.48-4.21-1.85Z"/></g></svg>